<?xml version="1.0" standalone="no"?>
<!DOCTYPE svg PUBLIC "-//W3C//DTD SVG 20010904//EN"
 "http://www.w3.org/TR/2001/REC-SVG-20010904/DTD/svg10.dtd">
<svg version="1.0" xmlns="http://www.w3.org/2000/svg"
 width="500.000000pt" height="500.000000pt" viewBox="0 0 500.000000 500.000000"
 preserveAspectRatio="xMidYMid meet">

<g transform="translate(0.000000,500.000000) scale(0.100000,-0.100000)"
fill="#000000" stroke="none">
<path d="M2528 3744 c-142 -34 -281 -140 -348 -265 -33 -63 -60 -156 -60 -209
0 -34 1 -33 24 23 61 147 157 255 281 314 278 131 595 43 754 -211 l31 -50 0
38 c0 93 -127 249 -255 312 -38 19 -95 41 -125 49 -69 18 -226 18 -302 -1z"/>
<path d="M1615 3356 c-217 -51 -395 -222 -450 -433 -21 -82 -19 -207 5 -284
19 -61 77 -175 85 -167 2 2 -5 33 -17 68 -26 79 -30 239 -9 315 53 191 213
357 401 416 127 41 323 21 426 -42 41 -25 56 -24 24 2 -53 43 -128 87 -185
108 -76 28 -199 36 -280 17z"/>
<path d="M2046 3148 c3 -4 9 -8 15 -8 5 0 9 4 9 8 0 5 -7 9 -15 9 -8 0 -12 -4
-9 -9z"/>
<path d="M2173 3142 c0 -12 5 -22 9 -22 11 0 10 12 -2 30 -7 12 -9 10 -7 -8z"/>
<path d="M2635 3101 c-6 -5 -19 -11 -30 -14 -19 -4 -19 -5 1 -6 12 0 27 6 34
14 14 16 10 20 -5 6z"/>
<path d="M2088 3092 c-21 -2 -38 -7 -38 -11 0 -4 15 -5 34 -3 19 2 47 -3 65
-12 34 -18 66 -60 57 -75 -4 -5 -2 -12 3 -15 5 -3 11 3 14 14 3 11 11 20 17
20 8 0 9 -7 5 -17 -15 -35 -18 -113 -5 -128 10 -12 8 -17 -14 -26 -14 -7 -26
-20 -26 -31 0 -10 -7 -18 -15 -18 -19 0 -19 0 7 -50 21 -39 21 -43 6 -54 -15
-11 -15 -13 0 -23 14 -9 15 -12 3 -27 -7 -9 -11 -16 -7 -16 3 0 -3 -15 -13
-32 -10 -18 -26 -32 -35 -32 -9 1 -16 -2 -16 -7 0 -5 -5 -9 -11 -9 -5 0 -8 4
-5 9 4 5 -3 7 -14 4 -16 -4 -19 -11 -14 -27 6 -20 6 -20 -14 2 -14 16 -22 19
-27 11 -6 -8 -10 -7 -16 2 -6 10 -9 5 -10 -16 -1 -28 -2 -28 -8 -6 -6 21 -8
22 -20 7 -11 -13 -11 -16 0 -16 10 -1 9 -4 -3 -14 -20 -14 -24 -51 -8 -61 6
-4 8 -10 5 -15 -18 -29 53 -209 77 -194 7 4 8 3 4 -4 -8 -13 109 -168 158
-209 18 -15 45 -45 61 -66 32 -43 39 -41 37 8 -1 19 3 37 9 40 6 4 10 -8 9
-32 -1 -65 3 -74 33 -90 24 -12 31 -12 38 -2 4 7 5 17 3 21 -3 4 0 8 6 8 6 0
-1 11 -15 24 l-26 24 23 16 c12 9 18 16 13 16 -6 0 -15 10 -20 23 -15 33 -31
18 -27 -25 2 -23 -1 -38 -7 -38 -7 0 -9 10 -5 24 3 13 0 34 -6 46 -10 18 -10
21 2 15 7 -5 10 -4 5 0 -4 5 1 18 10 29 13 16 11 15 -9 -3 -24 -21 -30 -22
-45 -10 -14 11 -15 11 -9 0 7 -10 2 -12 -25 -7 l-34 7 33 -15 c23 -11 32 -22
32 -38 0 -16 -3 -19 -9 -10 -4 8 -12 12 -17 11 -5 -2 -24 17 -41 42 -72 98
-97 128 -105 123 -7 -5 -12 10 -9 28 0 5 -4 7 -11 5 -7 -1 -12 3 -13 8 0 6
-10 26 -23 46 -24 40 -28 54 -10 43 7 -4 8 -3 4 5 -4 6 -11 9 -15 6 -5 -2 -16
20 -26 50 -18 58 -14 75 23 98 7 5 28 22 46 38 19 16 36 29 40 29 14 0 4 -37
-14 -53 -11 -9 -20 -21 -20 -26 0 -6 14 3 31 19 17 15 28 33 25 39 -18 29 33
81 79 81 29 0 85 -66 86 -102 l1 -33 12 37 11 37 33 -25 c29 -23 36 -25 70
-15 l37 10 -39 -5 -39 -5 6 38 c5 32 4 34 -5 16 -13 -27 -25 -28 -56 -5 -23
18 -23 19 -5 40 10 12 28 23 40 25 12 2 26 7 30 12 5 4 -6 5 -24 2 -20 -4 -33
-2 -37 6 -2 7 -5 4 -5 -5 -1 -10 -11 -29 -23 -43 -21 -24 -22 -24 -35 -5 -19
27 -2 57 62 112 55 47 65 82 30 102 -11 6 -23 15 -27 21 -12 17 -21 -23 -14
-68 5 -39 3 -45 -38 -89 -23 -25 -47 -43 -53 -40 -19 13 -38 57 -41 97 -7 93
-5 113 13 141 11 16 18 32 17 37 -1 4 3 7 8 7 7 0 8 13 4 36 -4 23 -3 39 5 43
6 4 13 21 15 39 4 34 -9 44 -43 35 -13 -3 -28 3 -44 21 -13 14 -29 26 -36 26
-6 0 -11 4 -11 9 0 13 -19 17 -62 13z m297 -1186 c14 -14 22 -27 16 -30 -10
-6 -51 31 -51 46 0 13 7 10 35 -16z"/>
<path d="M2335 2999 c-4 -6 -5 -12 -2 -15 2 -3 7 2 10 11 7 17 1 20 -8 4z"/>
<path d="M2405 2999 c-4 -6 -5 -12 -2 -15 2 -3 7 2 10 11 7 17 1 20 -8 4z"/>
<path d="M2316 2944 c-4 -9 -4 -19 -1 -22 2 -3 7 3 11 12 4 9 4 19 1 22 -2 3
-7 -3 -11 -12z"/>
<path d="M2753 2903 c-3 -10 -8 -22 -11 -26 -2 -5 6 -4 18 3 21 11 22 10 19
-22 -4 -32 -28 -57 -58 -58 -7 0 -46 -16 -85 -35 -78 -38 -101 -71 -111 -162
-1 -14 -7 -28 -13 -32 -5 -3 -10 -48 -11 -100 -1 -52 -4 -98 -7 -103 -3 -4 -1
-8 5 -8 5 0 13 10 16 21 6 17 9 19 16 8 7 -11 9 -10 9 4 0 21 23 22 39 3 7 -8
27 -18 44 -22 18 -4 35 -9 40 -10 4 -1 16 -2 27 -3 13 -1 20 -8 20 -22 0 -11
5 -17 10 -14 6 4 8 22 5 43 -11 62 -14 67 -29 47 -7 -10 -24 -20 -38 -22 -21
-3 -26 3 -42 47 -10 28 -15 57 -12 66 4 9 2 12 -5 8 -7 -4 -8 -23 -4 -50 l6
-44 -25 12 c-25 11 -29 20 -29 63 1 49 4 57 23 62 11 3 17 9 15 14 -3 4 10 15
30 25 39 18 43 24 17 24 -10 0 -38 -17 -62 -37 -40 -35 -43 -36 -36 -13 4 14
11 41 15 60 12 51 29 83 56 103 30 22 193 70 207 61 7 -4 8 -2 4 4 -4 7 -1 12
6 12 10 0 10 2 1 8 -6 4 -17 29 -23 55 -13 48 -35 63 -47 30z"/>
<path d="M2390 2835 c-13 -14 -21 -28 -18 -31 4 -3 11 4 18 15 9 17 18 21 43
18 18 -2 24 -2 14 0 -9 2 -15 9 -12 14 13 20 -23 8 -45 -16z"/>
<path d="M2484 2839 c-3 -5 9 -9 25 -9 17 0 31 2 31 4 0 8 -51 13 -56 5z"/>
<path d="M2841 2837 c2 -1 13 -9 24 -17 19 -14 19 -14 6 3 -7 9 -18 17 -24 17
-6 0 -8 -1 -6 -3z"/>
<path d="M2070 2800 c0 -5 4 -10 9 -10 6 0 13 5 16 10 3 6 -1 10 -9 10 -9 0
-16 -4 -16 -10z"/>
<path d="M2828 2783 c-30 -36 -31 -44 -4 -41 14 2 29 8 33 13 4 4 3 5 -4 1 -6
-3 -15 -1 -18 5 -4 6 2 13 14 16 11 3 18 9 15 14 -8 14 -19 11 -36 -8z"/>
<path d="M2895 2780 c3 -5 8 -10 11 -10 2 0 4 5 4 10 0 6 -5 10 -11 10 -5 0
-7 -4 -4 -10z"/>
<path d="M2014 2725 c-9 -14 -15 -27 -13 -30 3 -2 12 10 21 26 21 36 15 39 -8
4z"/>
<path d="M2845 2704 c20 -17 24 -24 11 -19 -61 19 -108 25 -126 15 -23 -13
-27 -22 -5 -14 9 4 18 -1 21 -11 5 -13 9 -14 15 -4 6 10 13 10 34 1 56 -26
102 -8 70 28 -16 18 -15 19 17 23 25 3 21 4 -17 5 l-50 2 30 -26z"/>
<path d="M2009 2668 c-1 -7 -1 -17 0 -21 1 -4 -6 -10 -14 -13 -8 -4 -15 -14
-14 -23 0 -12 4 -10 17 8 16 23 27 61 17 61 -3 0 -6 -6 -6 -12z"/>
<path d="M2734 2624 c-4 -14 -2 -35 4 -47 9 -19 11 -15 11 26 1 52 -5 61 -15
21z"/>
<path d="M2686 2565 c4 -11 12 -39 18 -62 7 -23 14 -45 17 -48 11 -10 19 87 9
103 -8 15 -9 15 -10 -2 0 -16 -2 -16 -21 5 -18 21 -20 21 -13 4z"/>
<path d="M2040 2381 c0 -6 4 -13 10 -16 6 -3 7 1 4 9 -7 18 -14 21 -14 7z"/>
<path d="M2085 2350 c-3 -5 -1 -10 4 -10 6 0 11 5 11 10 0 6 -2 10 -4 10 -3 0
-8 -4 -11 -10z"/>
<path d="M2520 2340 c0 -8 9 -26 20 -40 l21 -25 -13 30 c-15 38 -28 54 -28 35z"/>
<path d="M2320 2320 c8 -5 22 -9 30 -9 10 0 8 3 -5 9 -27 12 -43 12 -25 0z"/>
<path d="M2434 2298 c-3 -4 2 -8 11 -8 12 0 15 -5 11 -17 -5 -15 -4 -15 9 1 8
11 15 23 15 27 0 10 -40 7 -46 -3z"/>
<path d="M2380 2286 c-18 -18 -11 -26 15 -14 14 6 25 14 25 18 0 10 -28 8 -40
-4z"/>
<path d="M2479 2268 c-13 -18 -27 -36 -33 -40 -5 -3 -9 -20 -9 -37 0 -16 -4
-28 -9 -25 -4 3 -5 -3 -1 -12 4 -11 3 -15 -5 -10 -10 6 -32 -22 -32 -41 1 -4
7 3 14 16 8 15 16 20 20 12 4 -6 3 -11 -3 -11 -5 0 -13 -9 -16 -20 -4 -11 -9
-18 -13 -16 -9 5 -9 -50 -1 -59 4 -3 9 5 13 18 3 13 17 50 32 82 25 57 27 59
41 40 14 -19 15 -18 9 16 -4 22 0 52 8 77 8 23 13 42 11 42 -2 0 -14 -15 -26
-32z"/>
<path d="M2340 2231 c0 -7 -4 -10 -8 -7 -5 3 -9 -2 -9 -10 0 -13 2 -13 16 0 8
9 12 19 8 22 -4 4 -7 2 -7 -5z"/>
<path d="M2590 2230 c0 -5 5 -10 11 -10 5 0 7 5 4 10 -3 6 -8 10 -11 10 -2 0
-4 -4 -4 -10z"/>
<path d="M2696 2210 c-3 -17 -16 -54 -30 -83 -44 -96 -66 -149 -66 -163 0 -7
-9 -19 -20 -27 -11 -8 -17 -16 -14 -20 3 -3 3 -11 -1 -17 -6 -9 -10 -9 -17 1
-8 11 -9 10 -4 -3 5 -18 -9 -26 -16 -9 -1 5 -11 -2 -21 -15 -30 -40 7 -30 51
14 26 26 52 72 85 152 58 137 79 200 68 200 -5 0 -11 -14 -15 -30z"/>
<path d="M2278 2223 c7 -3 16 -2 19 1 4 3 -2 6 -13 5 -11 0 -14 -3 -6 -6z"/>
<path d="M2571 2174 c0 -11 3 -14 6 -6 3 7 2 16 -1 19 -3 4 -6 -2 -5 -13z"/>
<path d="M2946 2107 c-36 -62 -134 -263 -161 -332 -15 -38 -29 -73 -32 -77 -2
-4 -39 10 -81 31 -205 103 -532 212 -702 235 l-45 6 49 -25 c27 -13 185 -86
350 -161 166 -75 341 -157 390 -181 89 -45 105 -46 106 -6 0 7 27 108 61 225
33 117 66 235 74 263 8 27 13 50 12 51 -1 2 -11 -12 -21 -29z"/>
<path d="M2490 2117 c0 -10 9 -28 21 -40 l21 -22 -13 30 c-17 40 -29 53 -29
32z"/>
<path d="M2240 2096 c0 -2 8 -10 18 -17 15 -13 16 -12 3 4 -13 16 -21 21 -21
13z"/>
<path d="M2536 2052 c-3 -5 1 -9 9 -9 8 0 12 4 9 9 -3 4 -7 8 -9 8 -2 0 -6 -4
-9 -8z"/>
<path d="M2435 1882 c3 -3 -3 -11 -13 -18 -15 -12 -14 -13 11 -14 20 0 27 5
27 18 0 10 -7 19 -15 19 -8 0 -13 -3 -10 -5z"/>
<path d="M2480 1880 c0 -5 7 -7 15 -4 8 4 15 8 15 10 0 2 -7 4 -15 4 -8 0 -15
-4 -15 -10z"/>
</g>
</svg>
